  0
SECTION
  2
HEADER
  9
$ACADVER
  1
AC1009
  9
$EXTMAX
 10
2.7558999061585
 20
2.126100063324
 30
0.0
  9
$EXTMIN
 10
0.0
 20
0.0
 30
0.0
  9
$INSUNITS
 70
     4
  9
$LUNITS
 70
     2
  9
$LUPREC
 70
     4
  9
$MEASUREMENT
 70
     1
  0
ENDSEC
  0
SECTION
  2
TABLES
  0
TABLE
  2
LAYER
 70
     1
  0
LAYER
  2
0
 70
     0
 62
     7
  6
Continuous
  0
LAYER
  2
Drill_Top
 70
     0
 62
     7
  6
Continuous
  0
LAYER
  2
Board_Outline
 70
     0
 62
    13
  6
Continuous
  0
ENDTAB
  0
TABLE
  2
APPID
 70
     1
  0
APPID
  2
ACAD
 70
     0
  0
ENDTAB
  0
ENDSEC
  0
SECTION
  2
ENTITIES
  0
CIRCLE
  8
Drill_Top
 10
0.1378
 20
0.315
 30
0.0
 40
0.0492
  0
CIRCLE
  8
Drill_Top
 10
2.6181
 20
0.315
 30
0.0
 40
0.0492
  0
CIRCLE
  8
Drill_Top
 10
0.1378
 20
1.6339
 30
0.0
 40
0.0492
  0
CIRCLE
  8
Drill_Top
 10
2.6181
 20
1.6339
 30
0.0
 40
0.0492
  0
CIRCLE
  8
Drill_Top
 10
0.2402
 20
0.7598
 30
0.0
 40
0.0591
  0
POLYLINE
  8
Board_Outline
 66
     1
 10
0.0
 20
0.0
 30
0.0
 70
     1
  0
VERTEX
  8
Board_Outline
 10
2.6693
 20
0.0906
 42
0.0
  0
VERTEX
  8
Board_Outline
 10
2.626
 20
0.0472
 42
0.0
  0
VERTEX
  8
Board_Outline
 10
2.5945
 20
0.0236
 42
0.0
  0
VERTEX
  8
Board_Outline
 10
2.5591
 20
0.0
 42
0.0
  0
VERTEX
  8
Board_Outline
 10
0.1969
 20
0.0
 42
0.0
  0
VERTEX
  8
Board_Outline
 10
0.1614
 20
0.0236
 42
0.0
  0
VERTEX
  8
Board_Outline
 10
0.1299
 20
0.0472
 42
0.0
  0
VERTEX
  8
Board_Outline
 10
0.0866
 20
0.0906
 42
0.0
  0
VERTEX
  8
Board_Outline
 10
0.063
 20
0.1221
 42
0.0
  0
VERTEX
  8
Board_Outline
 10
0.0354
 20
0.1732
 42
0.0
  0
VERTEX
  8
Board_Outline
 10
0.0197
 20
0.2126
 42
0.0
  0
VERTEX
  8
Board_Outline
 10
0.0039
 20
0.2677
 42
0.0
  0
VERTEX
  8
Board_Outline
 10
0.0
 20
0.3071
 42
0.0
  0
VERTEX
  8
Board_Outline
 10
0.0
 20
1.8976
 42
0.0
  0
VERTEX
  8
Board_Outline
 10
0.0091
 20
1.9137
 42
0.0
  0
VERTEX
  8
Board_Outline
 10
0.02
 20
1.9286
 42
0.0
  0
VERTEX
  8
Board_Outline
 10
0.0327
 20
1.9421
 42
0.0
  0
VERTEX
  8
Board_Outline
 10
0.0468
 20
1.954
 42
0.0
  0
VERTEX
  8
Board_Outline
 10
0.0622
 20
1.9642
 42
0.0
  0
VERTEX
  8
Board_Outline
 10
0.0787
 20
1.9724
 42
0.0
  0
VERTEX
  8
Board_Outline
 10
0.1212
 20
1.9828
 42
0.0
  0
VERTEX
  8
Board_Outline
 10
0.1638
 20
1.9928
 42
0.0
  0
VERTEX
  8
Board_Outline
 10
0.2064
 20
2.0024
 42
0.0
  0
VERTEX
  8
Board_Outline
 10
0.2492
 20
2.0117
 42
0.0
  0
VERTEX
  8
Board_Outline
 10
0.292
 20
2.0206
 42
0.0
  0
VERTEX
  8
Board_Outline
 10
0.3348
 20
2.0291
 42
0.0
  0
VERTEX
  8
Board_Outline
 10
0.3778
 20
2.0373
 42
0.0
  0
VERTEX
  8
Board_Outline
 10
0.4208
 20
2.0452
 42
0.0
  0
VERTEX
  8
Board_Outline
 10
0.4639
 20
2.0527
 42
0.0
  0
VERTEX
  8
Board_Outline
 10
0.507
 20
2.0598
 42
0.0
  0
VERTEX
  8
Board_Outline
 10
0.5502
 20
2.0665
 42
0.0
  0
VERTEX
  8
Board_Outline
 10
0.5935
 20
2.0729
 42
0.0
  0
VERTEX
  8
Board_Outline
 10
0.6368
 20
2.079
 42
0.0
  0
VERTEX
  8
Board_Outline
 10
0.6801
 20
2.0847
 42
0.0
  0
VERTEX
  8
Board_Outline
 10
0.7235
 20
2.09
 42
0.0
  0
VERTEX
  8
Board_Outline
 10
0.767
 20
2.0949
 42
0.0
  0
VERTEX
  8
Board_Outline
 10
0.8105
 20
2.0995
 42
0.0
  0
VERTEX
  8
Board_Outline
 10
0.854
 20
2.1037
 42
0.0
  0
VERTEX
  8
Board_Outline
 10
0.8975
 20
2.1076
 42
0.0
  0
VERTEX
  8
Board_Outline
 10
0.9411
 20
2.1111
 42
0.0
  0
VERTEX
  8
Board_Outline
 10
0.9847
 20
2.1142
 42
0.0
  0
VERTEX
  8
Board_Outline
 10
1.0284
 20
2.117
 42
0.0
  0
VERTEX
  8
Board_Outline
 10
1.072
 20
2.1194
 42
0.0
  0
VERTEX
  8
Board_Outline
 10
1.1157
 20
2.1214
 42
0.0
  0
VERTEX
  8
Board_Outline
 10
1.1594
 20
2.1231
 42
0.0
  0
VERTEX
  8
Board_Outline
 10
1.2031
 20
2.1244
 42
0.0
  0
VERTEX
  8
Board_Outline
 10
1.2468
 20
2.1254
 42
0.0
  0
VERTEX
  8
Board_Outline
 10
1.2905
 20
2.1259
 42
0.0
  0
VERTEX
  8
Board_Outline
 10
1.3342
 20
2.1261
 42
0.0
  0
VERTEX
  8
Board_Outline
 10
1.378
 20
2.126
 42
0.0
  0
VERTEX
  8
Board_Outline
 10
1.4217
 20
2.1261
 42
0.0
  0
VERTEX
  8
Board_Outline
 10
1.4654
 20
2.1259
 42
0.0
  0
VERTEX
  8
Board_Outline
 10
1.5091
 20
2.1254
 42
0.0
  0
VERTEX
  8
Board_Outline
 10
1.5528
 20
2.1244
 42
0.0
  0
VERTEX
  8
Board_Outline
 10
1.5965
 20
2.1231
 42
0.0
  0
VERTEX
  8
Board_Outline
 10
1.6402
 20
2.1214
 42
0.0
  0
VERTEX
  8
Board_Outline
 10
1.6839
 20
2.1194
 42
0.0
  0
VERTEX
  8
Board_Outline
 10
1.7276
 20
2.117
 42
0.0
  0
VERTEX
  8
Board_Outline
 10
1.7712
 20
2.1142
 42
0.0
  0
VERTEX
  8
Board_Outline
 10
1.8148
 20
2.1111
 42
0.0
  0
VERTEX
  8
Board_Outline
 10
1.8584
 20
2.1076
 42
0.0
  0
VERTEX
  8
Board_Outline
 10
1.9019
 20
2.1037
 42
0.0
  0
VERTEX
  8
Board_Outline
 10
1.9455
 20
2.0995
 42
0.0
  0
VERTEX
  8
Board_Outline
 10
1.9889
 20
2.0949
 42
0.0
  0
VERTEX
  8
Board_Outline
 10
2.0324
 20
2.09
 42
0.0
  0
VERTEX
  8
Board_Outline
 10
2.0758
 20
2.0847
 42
0.0
  0
VERTEX
  8
Board_Outline
 10
2.1191
 20
2.079
 42
0.0
  0
VERTEX
  8
Board_Outline
 10
2.1624
 20
2.0729
 42
0.0
  0
VERTEX
  8
Board_Outline
 10
2.2057
 20
2.0665
 42
0.0
  0
VERTEX
  8
Board_Outline
 10
2.2489
 20
2.0598
 42
0.0
  0
VERTEX
  8
Board_Outline
 10
2.292
 20
2.0527
 42
0.0
  0
VERTEX
  8
Board_Outline
 10
2.3351
 20
2.0452
 42
0.0
  0
VERTEX
  8
Board_Outline
 10
2.3781
 20
2.0373
 42
0.0
  0
VERTEX
  8
Board_Outline
 10
2.4211
 20
2.0291
 42
0.0
  0
VERTEX
  8
Board_Outline
 10
2.4639
 20
2.0206
 42
0.0
  0
VERTEX
  8
Board_Outline
 10
2.5067
 20
2.0117
 42
0.0
  0
VERTEX
  8
Board_Outline
 10
2.5495
 20
2.0024
 42
0.0
  0
VERTEX
  8
Board_Outline
 10
2.5921
 20
1.9928
 42
0.0
  0
VERTEX
  8
Board_Outline
 10
2.6347
 20
1.9828
 42
0.0
  0
VERTEX
  8
Board_Outline
 10
2.6772
 20
1.9724
 42
0.0
  0
VERTEX
  8
Board_Outline
 10
2.6937
 20
1.9642
 42
0.0
  0
VERTEX
  8
Board_Outline
 10
2.7091
 20
1.954
 42
0.0
  0
VERTEX
  8
Board_Outline
 10
2.7232
 20
1.9421
 42
0.0
  0
VERTEX
  8
Board_Outline
 10
2.7359
 20
1.9286
 42
0.0
  0
VERTEX
  8
Board_Outline
 10
2.7468
 20
1.9137
 42
0.0
  0
VERTEX
  8
Board_Outline
 10
2.7559
 20
1.8976
 42
0.0
  0
VERTEX
  8
Board_Outline
 10
2.7559
 20
0.3071
 42
0.0
  0
VERTEX
  8
Board_Outline
 10
2.752
 20
0.2677
 42
0.0
  0
VERTEX
  8
Board_Outline
 10
2.7362
 20
0.2126
 42
0.0
  0
VERTEX
  8
Board_Outline
 10
2.7205
 20
0.1732
 42
0.0
  0
VERTEX
  8
Board_Outline
 10
2.6929
 20
0.1221
 42
0.0
  0
SEQEND
  0
ENDSEC
  0
EOF
